<svg width="22" height="21" viewBox="0 0 22 21" fill="none" xmlns="http://www.w3.org/2000/svg">
<path d="M16.8846 21H18.4691C19.2709 21 19.9296 20.3888 20.025 19.6057L21.6 3.86767H16.8273V0H14.9468V3.86767H10.2027L10.4891 6.10232C12.1214 6.55116 13.6486 7.36289 14.565 8.26057C15.9396 9.61664 16.8846 11.0205 16.8846 13.3124V21ZM0.600006 20.045V19.0996H14.9468V20.045C14.9468 20.5703 14.5173 21 13.9827 21H1.5641C1.02955 21 0.600006 20.5703 0.600006 20.045ZM14.9468 13.3602C14.9468 5.72033 0.600006 5.72033 0.600006 13.3602H14.9468ZM0.619097 15.2797H14.9373V17.1896H0.619097V15.2797Z" fill="#00A991"/>
</svg>
