<svg width="17" height="22" viewBox="0 0 17 22" fill="none" xmlns="http://www.w3.org/2000/svg">
<path d="M14.5 7.6111H13.5V5.66665C13.5 2.98332 11.26 0.805542 8.5 0.805542C5.74 0.805542 3.5 2.98332 3.5 5.66665V7.6111H2.5C1.4 7.6111 0.5 8.4861 0.5 9.55554V19.2778C0.5 20.3472 1.4 21.2222 2.5 21.2222H14.5C15.6 21.2222 16.5 20.3472 16.5 19.2778V9.55554C16.5 8.4861 15.6 7.6111 14.5 7.6111ZM5.5 5.66665C5.5 4.05276 6.84 2.74999 8.5 2.74999C10.16 2.74999 11.5 4.05276 11.5 5.66665V7.6111H5.5V5.66665ZM14.5 19.2778H2.5V9.55554H14.5V19.2778ZM8.5 16.3611C9.6 16.3611 10.5 15.4861 10.5 14.4167C10.5 13.3472 9.6 12.4722 8.5 12.4722C7.4 12.4722 6.5 13.3472 6.5 14.4167C6.5 15.4861 7.4 16.3611 8.5 16.3611Z" fill="#00A991"/>
</svg>
