<svg width="22" height="21" viewBox="0 0 22 21" fill="none" xmlns="http://www.w3.org/2000/svg">
<path d="M10.7 20.5H0.200012V18H6.23751C5.47101 14.4875 3.15051 11.7375 0.200012 10.825C0.872012 10.625 1.57551 10.5 2.30001 10.5C6.94101 10.5 10.7 14.975 10.7 20.5ZM21.2 10.825C20.528 10.625 19.8245 10.5 19.1 10.5C16.0235 10.5 13.346 12.475 11.876 15.4125C12.1805 16.2375 12.4325 17.1 12.5795 18C12.716 18.8125 12.7895 19.65 12.7895 20.5H14.8895H21.1895V18H15.152C15.929 14.4875 18.2495 11.7375 21.2 10.825ZM14.522 9.275C15.341 6.6625 16.8635 4.475 18.8165 3.025C14.312 3.2 10.7 7.5875 10.7 13C10.7 13.0125 10.7 13.025 10.7 13.025C11.6975 11.4375 13.01 10.15 14.522 9.275ZM10.091 6.5625C9.20901 3.825 7.42401 1.6125 5.13501 0.5C6.64701 2.825 7.55001 5.725 7.55001 8.8875C7.55001 9.15 7.51851 9.4 7.50801 9.65C7.95951 9.95 8.37951 10.3 8.78901 10.675C9.00951 9.2 9.47151 7.8125 10.091 6.5625Z" fill="#00A991"/>
</svg>
