<svg width="24" height="25" viewBox="0 0 24 25" fill="none" xmlns="http://www.w3.org/2000/svg">
<g id="Favorite border" clip-path="url(#clip0_205_433)">
<path id="Vector" d="M11.6193 5.91417L12 6.3612L12.3807 5.91417C13.3789 4.74197 14.9114 4 16.5 4C19.3039 4 21.5 6.19614 21.5 9C21.5 10.7258 20.7284 12.3307 19.2692 14.1147C17.8043 15.9057 15.6992 17.8155 13.1141 20.1596L13.1134 20.1603L11.9987 21.175L10.8863 20.17L10.8852 20.169L10.8735 20.1584C8.29415 17.8144 6.19348 15.9055 4.73088 14.1161C3.27162 12.3308 2.5 10.7258 2.5 9C2.5 6.19614 4.69614 4 7.5 4C9.08861 4 10.6211 4.74197 11.6193 5.91417ZM5.78512 13.8176C7.18867 15.4576 9.18798 17.2689 11.5552 19.4123L11.6464 19.5036L12 19.8571L12.3536 19.5036L12.4448 19.4123C14.812 17.2689 16.8113 15.4576 18.2149 13.8176C19.6154 12.1811 20.5 10.6296 20.5 9C20.5 6.72386 18.7761 5 16.5 5C14.8887 5 13.3081 5.95568 12.6133 7.36H11.3948C10.6926 5.95702 9.11294 5 7.5 5C5.22386 5 3.5 6.72386 3.5 9C3.5 10.6296 4.38462 12.1811 5.78512 13.8176Z" fill="#00A991" stroke="#007F6D"/>
</g>
<defs>
<clipPath id="clip0_205_433">
<rect width="24" height="24" fill="white" transform="translate(0 0.5)"/>
</clipPath>
</defs>
</svg>
