<svg width="190" height="51" viewBox="0 0 190 51" fill="none" xmlns="http://www.w3.org/2000/svg">
<path d="M1.88 34.88C1.88 34.6667 1.89333 34.4533 1.92 34.24C1.94667 34.0267 1.98667 33.8 2.04 33.56L4.84 20.48H2.16L2.92 17.08H5.52L7 10.2H11.4L9.92 17.08H14.24L13.52 20.48H9.24L6.76 32.16C6.73333 32.2667 6.70667 32.3733 6.68 32.48C6.68 32.56 6.68 32.6533 6.68 32.76C6.68 33.2933 6.82667 33.68 7.12 33.92C7.44 34.16 7.84 34.28 8.32 34.28C8.72 34.28 9.10667 34.2267 9.48 34.12C9.88 34.0133 10.24 33.9067 10.56 33.8C10.88 33.6667 11.1467 33.5467 11.36 33.44L11.52 36.92C11.12 37.16 10.6133 37.4 10 37.64C9.41333 37.8533 8.77333 38.0133 8.08 38.12C7.38667 38.2533 6.66667 38.32 5.92 38.32C4.77333 38.32 3.81333 38.0533 3.04 37.52C2.26667 36.96 1.88 36.08 1.88 34.88ZM20.2188 38.4C16.9654 38.4 15.3388 36.6667 15.3388 33.2C15.3388 32.72 15.3654 32.2133 15.4188 31.68C15.4988 31.12 15.6054 30.52 15.7388 29.88L18.4988 17.08H22.8588L20.2988 29C20.1121 29.9067 20.0188 30.7067 20.0188 31.4C20.0188 33.56 20.9388 34.64 22.7788 34.64C23.5521 34.64 24.3254 34.4667 25.0988 34.12C25.8988 33.7733 26.6721 33.2667 27.4188 32.6C28.1921 31.9067 28.8721 31.08 29.4588 30.12L32.2188 17.08H36.6188L33.2988 32.8C33.2721 32.9333 33.2454 33.0533 33.2188 33.16C33.1921 33.24 33.1788 33.32 33.1788 33.4C33.1788 33.9333 33.4854 34.2133 34.0988 34.24L33.3388 38C32.9388 38.0533 32.5921 38.0933 32.2988 38.12C32.0054 38.1733 31.7388 38.2 31.4988 38.2C30.6988 38.2 30.0721 38.0267 29.6188 37.68C29.1654 37.3333 28.9388 36.84 28.9388 36.2C28.9388 36.0667 28.9521 35.9067 28.9788 35.72C29.0054 35.5067 29.0454 35.2533 29.0988 34.96C29.1521 34.64 29.2188 34.24 29.2988 33.76C28.0988 35.28 26.7121 36.44 25.1388 37.24C23.5654 38.0133 21.9254 38.4 20.2188 38.4Z" fill="#B0E4DD"/>
<path d="M74.9188 38.4C73.3721 38.4 72.0388 38.0133 70.9188 37.24C69.7988 36.4667 68.9454 35.4267 68.3588 34.12C67.7721 32.8133 67.4788 31.36 67.4788 29.76C67.4788 28.0533 67.7854 26.4267 68.3988 24.88C69.0121 23.3067 69.8521 21.92 70.9188 20.72C72.0121 19.4933 73.2521 18.52 74.6388 17.8C76.0254 17.08 77.4788 16.72 78.9988 16.72C80.5188 16.72 81.7988 17.1333 82.8388 17.96C83.8788 18.7867 84.5988 19.8133 84.9988 21.04L85.8388 17.12H90.2788L86.9187 32.8C86.8921 32.9333 86.8654 33.0533 86.8388 33.16C86.8388 33.24 86.8388 33.32 86.8388 33.4C86.8388 33.9333 87.1454 34.2133 87.7588 34.24L86.9588 38C86.5854 38.0533 86.2521 38.0933 85.9588 38.12C85.6654 38.1733 85.3988 38.2 85.1588 38.2C84.3321 38.2 83.6921 38.0267 83.2388 37.68C82.7854 37.3067 82.5588 36.7867 82.5588 36.12C82.5588 35.9867 82.5588 35.8267 82.5588 35.64C82.5854 35.4533 82.6121 35.24 82.6388 35C82.6921 34.76 82.7588 34.4933 82.8388 34.2C81.7988 35.5333 80.5588 36.5733 79.1188 37.32C77.7054 38.04 76.3054 38.4 74.9188 38.4ZM76.8388 34.64C77.3721 34.64 77.9321 34.5333 78.5188 34.32C79.1321 34.1067 79.7188 33.8133 80.2788 33.44C80.8654 33.0667 81.3988 32.6267 81.8788 32.12C82.3588 31.6133 82.7454 31.0667 83.0388 30.48L84.1588 25C84.0521 24.1467 83.7721 23.3867 83.3188 22.72C82.8654 22.0267 82.3054 21.48 81.6388 21.08C80.9988 20.68 80.3054 20.48 79.5588 20.48C78.5454 20.48 77.5854 20.7333 76.6788 21.24C75.7988 21.72 75.0121 22.3733 74.3188 23.2C73.6521 24.0267 73.1188 24.9467 72.7188 25.96C72.3188 26.9733 72.1188 28 72.1188 29.04C72.1188 30.1067 72.3054 31.0533 72.6788 31.88C73.0788 32.7067 73.6254 33.3733 74.3188 33.88C75.0388 34.3867 75.8788 34.64 76.8388 34.64ZM95.8081 17.08H99.7681L98.8881 21.28C99.5815 20.3467 100.408 19.5467 101.368 18.88C102.328 18.1867 103.368 17.6533 104.488 17.28C105.608 16.9067 106.741 16.72 107.888 16.72C109.061 16.72 109.981 16.9333 110.648 17.36C111.315 17.7867 111.795 18.3733 112.088 19.12C112.381 19.84 112.528 20.6667 112.528 21.6C112.528 22.16 112.475 22.7467 112.368 23.36C112.288 23.9733 112.181 24.6 112.048 25.24L109.368 38H104.968L107.448 26.28C107.555 25.7733 107.635 25.32 107.688 24.92C107.741 24.4933 107.768 24.0933 107.768 23.72C107.768 22.6533 107.541 21.88 107.088 21.4C106.661 20.8933 106.035 20.64 105.208 20.64C104.435 20.64 103.608 20.8533 102.728 21.28C101.875 21.7067 101.061 22.2933 100.288 23.04C99.5148 23.76 98.8881 24.6 98.4081 25.56L95.7281 38H91.3281L95.8081 17.08ZM123.417 38.4C121.604 38.4 120.07 38 118.817 37.2C117.59 36.4 116.657 35.3333 116.017 34C115.377 32.6667 115.057 31.1867 115.057 29.56C115.057 27.88 115.377 26.28 116.017 24.76C116.657 23.2133 117.55 21.84 118.697 20.64C119.844 19.44 121.19 18.4933 122.737 17.8C124.31 17.08 126.017 16.72 127.857 16.72C130.017 16.72 131.737 17.2 133.017 18.16C134.297 19.0933 135.137 20.3467 135.537 21.92L130.977 23.28C130.684 22.3733 130.204 21.68 129.537 21.2C128.897 20.72 128.084 20.48 127.097 20.48C126.137 20.48 125.204 20.7067 124.297 21.16C123.417 21.5867 122.617 22.2 121.897 23C121.204 23.7733 120.644 24.68 120.217 25.72C119.817 26.7333 119.617 27.84 119.617 29.04C119.617 30.1333 119.804 31.0933 120.177 31.92C120.55 32.7467 121.07 33.4133 121.737 33.92C122.43 34.4 123.217 34.64 124.097 34.64C124.764 34.64 125.43 34.52 126.097 34.28C126.79 34.0133 127.417 33.6667 127.977 33.24C128.537 32.7867 128.964 32.2933 129.257 31.76L133.297 33.04C132.657 34.08 131.817 35 130.777 35.8C129.764 36.6 128.63 37.24 127.377 37.72C126.124 38.1733 124.804 38.4 123.417 38.4ZM141.942 8.8H146.342L143.702 21.28C144.769 19.8667 146.036 18.76 147.502 17.96C148.996 17.1333 150.502 16.72 152.022 16.72C153.222 16.72 154.182 16.9467 154.902 17.4C155.622 17.8267 156.129 18.4267 156.422 19.2C156.716 19.9467 156.862 20.8133 156.862 21.8C156.862 22.3333 156.822 22.8933 156.742 23.48C156.689 24.04 156.596 24.6267 156.462 25.24L153.782 38H149.382L151.862 26.28C151.969 25.8267 152.036 25.4133 152.062 25.04C152.116 24.64 152.142 24.2667 152.142 23.92C152.142 22.8267 151.902 22.0133 151.422 21.48C150.942 20.92 150.262 20.64 149.382 20.64C148.662 20.64 147.876 20.8533 147.022 21.28C146.196 21.7067 145.396 22.2933 144.622 23.04C143.876 23.76 143.276 24.6 142.822 25.56L140.142 38H135.742L141.942 8.8ZM166.911 38.4C165.364 38.4 164.031 38.0133 162.911 37.24C161.791 36.4667 160.938 35.4267 160.351 34.12C159.764 32.8133 159.471 31.36 159.471 29.76C159.471 28.0533 159.778 26.4267 160.391 24.88C161.004 23.3067 161.844 21.92 162.911 20.72C164.004 19.4933 165.244 18.52 166.631 17.8C168.018 17.08 169.471 16.72 170.991 16.72C172.511 16.72 173.791 17.1333 174.831 17.96C175.871 18.7867 176.591 19.8133 176.991 21.04L177.831 17.12H182.271L178.911 32.8C178.884 32.9333 178.858 33.0533 178.831 33.16C178.831 33.24 178.831 33.32 178.831 33.4C178.831 33.9333 179.138 34.2133 179.751 34.24L178.951 38C178.578 38.0533 178.244 38.0933 177.951 38.12C177.658 38.1733 177.391 38.2 177.151 38.2C176.324 38.2 175.684 38.0267 175.231 37.68C174.778 37.3067 174.551 36.7867 174.551 36.12C174.551 35.9867 174.551 35.8267 174.551 35.64C174.578 35.4533 174.604 35.24 174.631 35C174.684 34.76 174.751 34.4933 174.831 34.2C173.791 35.5333 172.551 36.5733 171.111 37.32C169.698 38.04 168.298 38.4 166.911 38.4ZM168.831 34.64C169.364 34.64 169.924 34.5333 170.511 34.32C171.124 34.1067 171.711 33.8133 172.271 33.44C172.858 33.0667 173.391 32.6267 173.871 32.12C174.351 31.6133 174.738 31.0667 175.031 30.48L176.151 25C176.044 24.1467 175.764 23.3867 175.311 22.72C174.858 22.0267 174.298 21.48 173.631 21.08C172.991 20.68 172.298 20.48 171.551 20.48C170.538 20.48 169.578 20.7333 168.671 21.24C167.791 21.72 167.004 22.3733 166.311 23.2C165.644 24.0267 165.111 24.9467 164.711 25.96C164.311 26.9733 164.111 28 164.111 29.04C164.111 30.1067 164.298 31.0533 164.671 31.88C165.071 32.7067 165.618 33.3733 166.311 33.88C167.031 34.3867 167.871 34.64 168.831 34.64Z" fill="#00A991"/>
<g filter="url(#filter0_i_190_342)">
<path fill-rule="evenodd" clip-rule="evenodd" d="M44.6744 30.9444C45.1248 32.2148 45.77 33.39 46.61 34.47C47.77 33.57 48.68 32.4652 49.34 31.1556C50 29.8452 50.33 28.46 50.33 27C50.33 25.54 50 24.1548 49.34 22.8444C48.68 21.5348 47.77 20.43 46.61 19.53C45.77 20.61 45.1248 21.7848 44.6744 23.0544C44.2248 24.3248 44 25.64 44 27C44 28.36 44.2248 29.6748 44.6744 30.9444ZM51.8744 38.28C53.1848 38.76 54.56 39 56 39C57.44 39 58.8152 38.76 60.1256 38.28C61.4352 37.8 62.63 37.1 63.71 36.18C62.33 35.04 61.25 33.6752 60.47 32.0856C59.69 30.4952 59.3 28.8 59.3 27C59.3 25.2 59.69 23.5048 60.47 21.9144C61.25 20.3248 62.33 18.96 63.71 17.82C62.63 16.9 61.4352 16.2 60.1256 15.72C58.8152 15.24 57.44 15 56 15C54.56 15 53.1848 15.24 51.8744 15.72C50.5648 16.2 49.37 16.9 48.29 17.82C49.67 18.96 50.75 20.3248 51.53 21.9144C52.31 23.5048 52.7 25.2 52.7 27C52.7 28.8 52.31 30.4952 51.53 32.0856C50.75 33.6752 49.67 35.04 48.29 36.18C49.37 37.1 50.5648 37.8 51.8744 38.28Z" fill="#00A991"/>
</g>
<defs>
<filter id="filter0_i_190_342" x="44" y="15" width="29" height="31" filterUnits="userSpaceOnUse" color-interpolation-filters="sRGB">
<feFlood flood-opacity="0" result="BackgroundImageFix"/>
<feBlend mode="normal" in="SourceGraphic" in2="BackgroundImageFix" result="shape"/>
<feColorMatrix in="SourceAlpha" type="matrix" values="0 0 0 0 0 0 0 0 0 0 0 0 0 0 0 0 0 0 127 0" result="hardAlpha"/>
<feOffset dx="5" dy="7"/>
<feGaussianBlur stdDeviation="6"/>
<feComposite in2="hardAlpha" operator="arithmetic" k2="-1" k3="1"/>
<feColorMatrix type="matrix" values="0 0 0 0 0 0 0 0 0 0 0 0 0 0 0 0 0 0 0.25 0"/>
<feBlend mode="normal" in2="shape" result="effect1_innerShadow_190_342"/>
</filter>
</defs>
</svg>
