<svg width="114" height="32" viewBox="0 0 114 32" fill="none" xmlns="http://www.w3.org/2000/svg">
<path d="M1.128 20.128C1.128 20 1.136 19.872 1.152 19.744C1.168 19.616 1.192 19.48 1.224 19.336L2.904 11.488H1.296L1.752 9.448H3.312L4.2 5.32H6.84L5.952 9.448H8.544L8.112 11.488H5.544L4.056 18.496C4.04 18.56 4.024 18.624 4.008 18.688C4.008 18.736 4.008 18.792 4.008 18.856C4.008 19.176 4.096 19.408 4.272 19.552C4.464 19.696 4.704 19.768 4.992 19.768C5.232 19.768 5.464 19.736 5.688 19.672C5.928 19.608 6.144 19.544 6.336 19.48C6.528 19.4 6.688 19.328 6.816 19.264L6.912 21.352C6.672 21.496 6.368 21.64 6 21.784C5.648 21.912 5.264 22.008 4.848 22.072C4.432 22.152 4 22.192 3.552 22.192C2.864 22.192 2.288 22.032 1.824 21.712C1.36 21.376 1.128 20.848 1.128 20.128ZM12.1313 22.24C10.1793 22.24 9.20325 21.2 9.20325 19.12C9.20325 18.832 9.21925 18.528 9.25125 18.208C9.29925 17.872 9.36325 17.512 9.44325 17.128L11.0993 9.448H13.7153L12.1793 16.6C12.0673 17.144 12.0113 17.624 12.0113 18.04C12.0113 19.336 12.5633 19.984 13.6673 19.984C14.1313 19.984 14.5953 19.88 15.0593 19.672C15.5393 19.464 16.0033 19.16 16.4513 18.76C16.9153 18.344 17.3233 17.848 17.6753 17.272L19.3313 9.448H21.9713L19.9793 18.88C19.9633 18.96 19.9473 19.032 19.9313 19.096C19.9153 19.144 19.9073 19.192 19.9073 19.24C19.9073 19.56 20.0913 19.728 20.4593 19.744L20.0033 22C19.7633 22.032 19.5553 22.056 19.3793 22.072C19.2033 22.104 19.0433 22.12 18.8993 22.12C18.4193 22.12 18.0433 22.016 17.7713 21.808C17.4993 21.6 17.3633 21.304 17.3633 20.92C17.3633 20.84 17.3713 20.744 17.3873 20.632C17.4033 20.504 17.4273 20.352 17.4593 20.176C17.4913 19.984 17.5313 19.744 17.5793 19.456C16.8593 20.368 16.0273 21.064 15.0833 21.544C14.1393 22.008 13.1553 22.24 12.1313 22.24Z" fill="#B0E4DD"/>
<path d="M44.9513 22.24C44.0233 22.24 43.2233 22.008 42.5513 21.544C41.8793 21.08 41.3673 20.456 41.0153 19.672C40.6633 18.888 40.4873 18.016 40.4873 17.056C40.4873 16.032 40.6713 15.056 41.0393 14.128C41.4073 13.184 41.9113 12.352 42.5513 11.632C43.2073 10.896 43.9513 10.312 44.7833 9.88C45.6153 9.448 46.4873 9.232 47.3993 9.232C48.3113 9.232 49.0793 9.48 49.7033 9.976C50.3273 10.472 50.7593 11.088 50.9993 11.824L51.5033 9.472H54.1673L52.1512 18.88C52.1353 18.96 52.1193 19.032 52.1033 19.096C52.1033 19.144 52.1033 19.192 52.1033 19.24C52.1033 19.56 52.2873 19.728 52.6553 19.744L52.1753 22C51.9513 22.032 51.7513 22.056 51.5753 22.072C51.3993 22.104 51.2393 22.12 51.0953 22.12C50.5993 22.12 50.2153 22.016 49.9433 21.808C49.6713 21.584 49.5353 21.272 49.5353 20.872C49.5353 20.792 49.5353 20.696 49.5353 20.584C49.5513 20.472 49.5673 20.344 49.5833 20.2C49.6153 20.056 49.6553 19.896 49.7033 19.72C49.0793 20.52 48.3353 21.144 47.4713 21.592C46.6233 22.024 45.7833 22.24 44.9513 22.24ZM46.1033 19.984C46.4233 19.984 46.7593 19.92 47.1113 19.792C47.4793 19.664 47.8313 19.488 48.1673 19.264C48.5193 19.04 48.8393 18.776 49.1273 18.472C49.4153 18.168 49.6473 17.84 49.8233 17.488L50.4953 14.2C50.4313 13.688 50.2633 13.232 49.9913 12.832C49.7193 12.416 49.3833 12.088 48.9833 11.848C48.5993 11.608 48.1833 11.488 47.7353 11.488C47.1273 11.488 46.5513 11.64 46.0073 11.944C45.4793 12.232 45.0073 12.624 44.5913 13.12C44.1913 13.616 43.8713 14.168 43.6313 14.776C43.3913 15.384 43.2713 16 43.2713 16.624C43.2713 17.264 43.3833 17.832 43.6073 18.328C43.8473 18.824 44.1753 19.224 44.5913 19.528C45.0233 19.832 45.5273 19.984 46.1033 19.984ZM57.4849 9.448H59.8609L59.3329 11.968C59.7489 11.408 60.2449 10.928 60.8209 10.528C61.3969 10.112 62.0209 9.792 62.6929 9.568C63.3649 9.344 64.0449 9.232 64.7329 9.232C65.4369 9.232 65.9889 9.36 66.3889 9.616C66.7889 9.872 67.0769 10.224 67.2529 10.672C67.4289 11.104 67.5169 11.6 67.5169 12.16C67.5169 12.496 67.4849 12.848 67.4209 13.216C67.3729 13.584 67.3089 13.96 67.2289 14.344L65.6209 22H62.9809L64.4689 14.968C64.5329 14.664 64.5809 14.392 64.6129 14.152C64.6449 13.896 64.6609 13.656 64.6609 13.432C64.6609 12.792 64.5249 12.328 64.2529 12.04C63.9969 11.736 63.6209 11.584 63.1249 11.584C62.6609 11.584 62.1649 11.712 61.6369 11.968C61.1249 12.224 60.6369 12.576 60.1729 13.024C59.7089 13.456 59.3329 13.96 59.0449 14.536L57.4369 22H54.7969L57.4849 9.448ZM74.0501 22.24C72.9621 22.24 72.0421 22 71.2901 21.52C70.5541 21.04 69.9941 20.4 69.6101 19.6C69.2261 18.8 69.0341 17.912 69.0341 16.936C69.0341 15.928 69.2261 14.968 69.6101 14.056C69.9941 13.128 70.5301 12.304 71.2181 11.584C71.9061 10.864 72.7141 10.296 73.6421 9.88C74.5861 9.448 75.6101 9.232 76.7141 9.232C78.0101 9.232 79.0421 9.52 79.8101 10.096C80.5781 10.656 81.0821 11.408 81.3221 12.352L78.5861 13.168C78.4101 12.624 78.1221 12.208 77.7221 11.92C77.3381 11.632 76.8501 11.488 76.2581 11.488C75.6821 11.488 75.1221 11.624 74.5781 11.896C74.0501 12.152 73.5701 12.52 73.1381 13C72.7221 13.464 72.3861 14.008 72.1301 14.632C71.8901 15.24 71.7701 15.904 71.7701 16.624C71.7701 17.28 71.8821 17.856 72.1061 18.352C72.3301 18.848 72.6421 19.248 73.0421 19.552C73.4581 19.84 73.9301 19.984 74.4581 19.984C74.8581 19.984 75.2581 19.912 75.6581 19.768C76.0741 19.608 76.4501 19.4 76.7861 19.144C77.1221 18.872 77.3781 18.576 77.5541 18.256L79.9781 19.024C79.5941 19.648 79.0901 20.2 78.4661 20.68C77.8581 21.16 77.1781 21.544 76.4261 21.832C75.6741 22.104 74.8821 22.24 74.0501 22.24ZM85.1653 4.48H87.8053L86.2213 11.968C86.8613 11.12 87.6213 10.456 88.5013 9.976C89.3973 9.48 90.3013 9.232 91.2133 9.232C91.9333 9.232 92.5093 9.368 92.9413 9.64C93.3733 9.896 93.6773 10.256 93.8533 10.72C94.0293 11.168 94.1173 11.688 94.1173 12.28C94.1173 12.6 94.0933 12.936 94.0453 13.288C94.0133 13.624 93.9573 13.976 93.8773 14.344L92.2693 22H89.6293L91.1173 14.968C91.1813 14.696 91.2213 14.448 91.2373 14.224C91.2693 13.984 91.2853 13.76 91.2853 13.552C91.2853 12.896 91.1413 12.408 90.8533 12.088C90.5653 11.752 90.1573 11.584 89.6293 11.584C89.1973 11.584 88.7253 11.712 88.2133 11.968C87.7173 12.224 87.2373 12.576 86.7733 13.024C86.3253 13.456 85.9653 13.96 85.6933 14.536L84.0853 22H81.4453L85.1653 4.48ZM100.147 22.24C99.2186 22.24 98.4186 22.008 97.7466 21.544C97.0746 21.08 96.5626 20.456 96.2106 19.672C95.8586 18.888 95.6826 18.016 95.6826 17.056C95.6826 16.032 95.8666 15.056 96.2346 14.128C96.6026 13.184 97.1066 12.352 97.7466 11.632C98.4026 10.896 99.1466 10.312 99.9786 9.88C100.811 9.448 101.683 9.232 102.595 9.232C103.507 9.232 104.275 9.48 104.899 9.976C105.523 10.472 105.955 11.088 106.195 11.824L106.699 9.472H109.363L107.347 18.88C107.331 18.96 107.315 19.032 107.299 19.096C107.299 19.144 107.299 19.192 107.299 19.24C107.299 19.56 107.483 19.728 107.851 19.744L107.371 22C107.147 22.032 106.947 22.056 106.771 22.072C106.595 22.104 106.435 22.12 106.291 22.12C105.795 22.12 105.411 22.016 105.139 21.808C104.867 21.584 104.731 21.272 104.731 20.872C104.731 20.792 104.731 20.696 104.731 20.584C104.747 20.472 104.763 20.344 104.779 20.2C104.811 20.056 104.851 19.896 104.899 19.72C104.275 20.52 103.531 21.144 102.667 21.592C101.819 22.024 100.979 22.24 100.147 22.24ZM101.299 19.984C101.619 19.984 101.955 19.92 102.307 19.792C102.675 19.664 103.027 19.488 103.363 19.264C103.715 19.04 104.035 18.776 104.323 18.472C104.611 18.168 104.843 17.84 105.019 17.488L105.691 14.2C105.627 13.688 105.459 13.232 105.187 12.832C104.915 12.416 104.579 12.088 104.179 11.848C103.795 11.608 103.379 11.488 102.931 11.488C102.323 11.488 101.747 11.64 101.203 11.944C100.675 12.232 100.203 12.624 99.7866 13.12C99.3866 13.616 99.0666 14.168 98.8266 14.776C98.5866 15.384 98.4666 16 98.4666 16.624C98.4666 17.264 98.5786 17.832 98.8026 18.328C99.0426 18.824 99.3706 19.224 99.7866 19.528C100.219 19.832 100.723 19.984 101.299 19.984Z" fill="#00A991"/>
<g filter="url(#filter0_i_555_880)">
<path fill-rule="evenodd" clip-rule="evenodd" d="M25.3934 18.3009C25.6561 19.042 26.0325 19.7275 26.5225 20.3575C27.1992 19.8325 27.73 19.188 28.115 18.4241C28.5 17.6597 28.6925 16.8517 28.6925 16C28.6925 15.1483 28.5 14.3403 28.115 13.5759C27.73 12.812 27.1992 12.1675 26.5225 11.6425C26.0325 12.2725 25.6561 12.9578 25.3934 13.6984C25.1311 14.4395 25 15.2067 25 16C25 16.7933 25.1311 17.5603 25.3934 18.3009ZM29.5934 22.58C30.3578 22.86 31.16 23 32 23C32.84 23 33.6422 22.86 34.4066 22.58C35.1705 22.3 35.8675 21.8917 36.4975 21.355C35.6925 20.69 35.0625 19.8939 34.6075 18.9666C34.1525 18.0389 33.925 17.05 33.925 16C33.925 14.95 34.1525 13.9611 34.6075 13.0334C35.0625 12.1061 35.6925 11.31 36.4975 10.645C35.8675 10.1083 35.1705 9.7 34.4066 9.42C33.6422 9.14 32.84 9 32 9C31.16 9 30.3578 9.14 29.5934 9.42C28.8295 9.7 28.1325 10.1083 27.5025 10.645C28.3075 11.31 28.9375 12.1061 29.3925 13.0334C29.8475 13.9611 30.075 14.95 30.075 16C30.075 17.05 29.8475 18.0389 29.3925 18.9666C28.9375 19.8939 28.3075 20.69 27.5025 21.355C28.1325 21.8917 28.8295 22.3 29.5934 22.58Z" fill="#00A991"/>
</g>
<defs>
<filter id="filter0_i_555_880" x="25" y="9" width="19" height="21" filterUnits="userSpaceOnUse" color-interpolation-filters="sRGB">
<feFlood flood-opacity="0" result="BackgroundImageFix"/>
<feBlend mode="normal" in="SourceGraphic" in2="BackgroundImageFix" result="shape"/>
<feColorMatrix in="SourceAlpha" type="matrix" values="0 0 0 0 0 0 0 0 0 0 0 0 0 0 0 0 0 0 127 0" result="hardAlpha"/>
<feOffset dx="5" dy="7"/>
<feGaussianBlur stdDeviation="6"/>
<feComposite in2="hardAlpha" operator="arithmetic" k2="-1" k3="1"/>
<feColorMatrix type="matrix" values="0 0 0 0 0 0 0 0 0 0 0 0 0 0 0 0 0 0 0.25 0"/>
<feBlend mode="normal" in2="shape" result="effect1_innerShadow_555_880"/>
</filter>
</defs>
</svg>
