<svg width="37" height="40" viewBox="0 0 37 40" fill="none" xmlns="http://www.w3.org/2000/svg">
<g clip-path="url(#clip0_353_758)" filter="url(#filter0_d_353_758)">
<g filter="url(#filter1_d_353_758)">
<path d="M23.75 21.5H22.565L22.145 21.095C23.615 19.385 24.5 17.165 24.5 14.75C24.5 9.365 20.135 5 14.75 5C9.365 5 5 9.365 5 14.75C5 20.135 9.365 24.5 14.75 24.5C17.165 24.5 19.385 23.615 21.095 22.145L21.5 22.565V23.75L29 31.235L31.235 29L23.75 21.5ZM14.75 21.5C11.015 21.5 8 18.485 8 14.75C8 11.015 11.015 8 14.75 8C18.485 8 21.5 11.015 21.5 14.75C21.5 18.485 18.485 21.5 14.75 21.5Z" fill="#00A991"/>
</g>
</g>
<defs>
<filter id="filter0_d_353_758" x="-3.5" y="0.5" width="44" height="44" filterUnits="userSpaceOnUse" color-interpolation-filters="sRGB">
<feFlood flood-opacity="0" result="BackgroundImageFix"/>
<feColorMatrix in="SourceAlpha" type="matrix" values="0 0 0 0 0 0 0 0 0 0 0 0 0 0 0 0 0 0 127 0" result="hardAlpha"/>
<feOffset dy="4"/>
<feGaussianBlur stdDeviation="2"/>
<feComposite in2="hardAlpha" operator="out"/>
<feColorMatrix type="matrix" values="0 0 0 0 0 0 0 0 0 0 0 0 0 0 0 0 0 0 0.25 0"/>
<feBlend mode="normal" in2="BackgroundImageFix" result="effect1_dropShadow_353_758"/>
<feBlend mode="normal" in="SourceGraphic" in2="effect1_dropShadow_353_758" result="shape"/>
</filter>
<filter id="filter1_d_353_758" x="1" y="5" width="34.235" height="34.235" filterUnits="userSpaceOnUse" color-interpolation-filters="sRGB">
<feFlood flood-opacity="0" result="BackgroundImageFix"/>
<feColorMatrix in="SourceAlpha" type="matrix" values="0 0 0 0 0 0 0 0 0 0 0 0 0 0 0 0 0 0 127 0" result="hardAlpha"/>
<feOffset dy="4"/>
<feGaussianBlur stdDeviation="2"/>
<feComposite in2="hardAlpha" operator="out"/>
<feColorMatrix type="matrix" values="0 0 0 0 0 0 0 0 0 0 0 0 0 0 0 0 0 0 0.25 0"/>
<feBlend mode="normal" in2="BackgroundImageFix" result="effect1_dropShadow_353_758"/>
<feBlend mode="normal" in="SourceGraphic" in2="effect1_dropShadow_353_758" result="shape"/>
</filter>
<clipPath id="clip0_353_758">
<rect width="36" height="36" fill="white" transform="translate(0.5 0.5)"/>
</clipPath>
</defs>
</svg>
