<svg width="53" height="53" viewBox="0 0 53 53" fill="none" xmlns="http://www.w3.org/2000/svg">
<path d="M26.5 43C24.2175 43 22.0725 42.5669 20.065 41.7006C18.0575 40.8344 16.3113 39.6588 14.8263 38.1738C13.3413 36.6888 12.1656 34.9425 11.2994 32.935C10.4331 30.9275 10 28.7825 10 26.5C10 24.2175 10.4331 22.0725 11.2994 20.065C12.1656 18.0575 13.3413 16.3113 14.8263 14.8263C16.3113 13.3413 18.0575 12.1656 20.065 11.2994C22.0725 10.4331 24.2175 10 26.5 10C28.7825 10 30.9275 10.4331 32.935 11.2994C34.9425 12.1656 36.6888 13.3413 38.1738 14.8263C39.6588 16.3113 40.8344 18.0575 41.7006 20.065C42.5669 22.0725 43 24.2175 43 26.5C43 28.7825 42.5669 30.9275 41.7006 32.935C40.8344 34.9425 39.6588 36.6888 38.1738 38.1738C36.6888 39.6588 34.9425 40.8344 32.935 41.7006C30.9275 42.5669 28.7825 43 26.5 43ZM26.5 36.4C26.9675 36.4 27.4075 36.3725 27.82 36.3175C28.2325 36.2625 28.645 36.18 29.0575 36.07C29.1675 36.0425 29.3325 35.8363 29.5525 35.4513C29.58 35.3138 29.5594 35.1763 29.4906 35.0388C29.4219 34.9013 29.3188 34.7913 29.1813 34.7088C27.8612 33.8288 26.8094 32.6738 26.0256 31.2438C25.2419 29.8138 24.85 28.2325 24.85 26.5C24.85 24.7675 25.2419 23.1863 26.0256 21.7563C26.8094 20.3263 27.8612 19.1713 29.1813 18.2913C29.3188 18.1813 29.4219 18.0644 29.4906 17.9406C29.5594 17.8169 29.58 17.6863 29.5525 17.5488C29.525 17.4113 29.47 17.2875 29.3875 17.1775C29.305 17.0675 29.195 16.985 29.0575 16.93C28.645 16.82 28.2325 16.7375 27.82 16.6825C27.4075 16.6275 26.9675 16.6 26.5 16.6C23.75 16.6 21.4125 17.5556 19.4875 19.4669C17.5625 21.3781 16.6 23.7225 16.6 26.5C16.6 29.25 17.5625 31.5875 19.4875 33.5125C21.4125 35.4375 23.75 36.4 26.5 36.4Z" fill="#007F6D"/>
</svg>
