<svg width="22" height="21" viewBox="0 0 22 21" fill="none" xmlns="http://www.w3.org/2000/svg">
<path d="M18.7733 1.32563C18.54 0.55125 17.8867 0 17.1167 0H4.28335C3.51335 0 2.87168 0.55125 2.62668 1.32563L0.200012 9.1875V19.6875C0.200012 20.4094 0.725012 21 1.36668 21H2.53335C3.17501 21 3.70001 20.4094 3.70001 19.6875V18.375H17.7V19.6875C17.7 20.4094 18.225 21 18.8667 21H20.0333C20.675 21 21.2 20.4094 21.2 19.6875V9.1875L18.7733 1.32563ZM5.45001 14.4375C4.48168 14.4375 3.70001 13.5581 3.70001 12.4688C3.70001 11.3794 4.48168 10.5 5.45001 10.5C6.41835 10.5 7.20001 11.3794 7.20001 12.4688C7.20001 13.5581 6.41835 14.4375 5.45001 14.4375ZM15.95 14.4375C14.9817 14.4375 14.2 13.5581 14.2 12.4688C14.2 11.3794 14.9817 10.5 15.95 10.5C16.9183 10.5 17.7 11.3794 17.7 12.4688C17.7 13.5581 16.9183 14.4375 15.95 14.4375ZM3.47835 6.5625L4.69168 2.625H16.6967L17.91 6.5625H3.47835Z" fill="#00A991"/>
</svg>
