<svg width="25" height="24" viewBox="0 0 25 24" fill="none" xmlns="http://www.w3.org/2000/svg">
<path d="M12.575 19H5.5C4.95 19 4.479 18.8043 4.087 18.413C3.69567 18.021 3.5 17.55 3.5 17V6C3.5 5.45 3.69567 4.97933 4.087 4.588C4.479 4.196 4.95 4 5.5 4H6.5V2H8.5V4H14.5V2H16.5V4H17.5C18.05 4 18.521 4.196 18.913 4.588C19.3043 4.97933 19.5 5.45 19.5 6V12.075C19.3333 12.0417 19.171 12.0207 19.013 12.012C18.8543 12.004 18.6833 12 18.5 12C18.3167 12 18.146 12.004 17.988 12.012C17.8293 12.0207 17.6667 12.0417 17.5 12.075V9H5.5V17H12.575C12.5417 17.1667 12.5207 17.3293 12.512 17.488C12.504 17.646 12.5 17.8167 12.5 18C12.5 18.1833 12.504 18.354 12.512 18.512C12.5207 18.6707 12.5417 18.8333 12.575 19ZM17.5 22V19H14.5V17H17.5V14H19.5V17H22.5V19H19.5V22H17.5Z" fill="#DFDFDF"/>
</svg>
