<svg width="18" height="21" viewBox="0 0 18 21" fill="none" xmlns="http://www.w3.org/2000/svg">
<path d="M3.92859 17.4047C4.615 17.4047 5.17144 16.8895 5.17144 16.2539C5.17144 15.6184 4.615 15.1031 3.92859 15.1031C3.24218 15.1031 2.68573 15.6184 2.68573 16.2539C2.68573 16.8895 3.24218 17.4047 3.92859 17.4047Z" fill="#00A991"/>
<path d="M8.90008 17.4047C9.58649 17.4047 10.1429 16.8895 10.1429 16.2539C10.1429 15.6184 9.58649 15.1031 8.90008 15.1031C8.21367 15.1031 7.65723 15.6184 7.65723 16.2539C7.65723 16.8895 8.21367 17.4047 8.90008 17.4047Z" fill="#00A991"/>
<path d="M13.8715 17.4047C14.5579 17.4047 15.1143 16.8895 15.1143 16.2539C15.1143 15.6184 14.5579 15.1031 13.8715 15.1031C13.185 15.1031 12.6286 15.6184 12.6286 16.2539C12.6286 16.8895 13.185 17.4047 13.8715 17.4047Z" fill="#00A991"/>
<path d="M10.1429 2.5365V0.142853H7.65716V2.5365C3.44387 3.10039 0.200012 6.43769 0.200012 10.5V12.8016H17.6V10.5C17.6 6.43769 14.3562 3.10039 10.1429 2.5365Z" fill="#00A991"/>
<path d="M3.92859 20.8571C4.615 20.8571 5.17144 20.3419 5.17144 19.7063C5.17144 19.0708 4.615 18.5555 3.92859 18.5555C3.24218 18.5555 2.68573 19.0708 2.68573 19.7063C2.68573 20.3419 3.24218 20.8571 3.92859 20.8571Z" fill="#00A991"/>
<path d="M8.90008 20.8571C9.58649 20.8571 10.1429 20.3419 10.1429 19.7063C10.1429 19.0708 9.58649 18.5555 8.90008 18.5555C8.21367 18.5555 7.65723 19.0708 7.65723 19.7063C7.65723 20.3419 8.21367 20.8571 8.90008 20.8571Z" fill="#00A991"/>
<path d="M13.8715 20.8571C14.5579 20.8571 15.1143 20.3419 15.1143 19.7063C15.1143 19.0708 14.5579 18.5555 13.8715 18.5555C13.185 18.5555 12.6286 19.0708 12.6286 19.7063C12.6286 20.3419 13.185 20.8571 13.8715 20.8571Z" fill="#00A991"/>
</svg>
