<svg width="16" height="16" viewBox="0 0 16 16" fill="none" xmlns="http://www.w3.org/2000/svg">
<path d="M8 7.66667C6.9 7.66667 5.95833 7.29132 5.175 6.54062C4.39167 5.78993 4 4.8875 4 3.83333C4 2.77917 4.39167 1.87674 5.175 1.12604C5.95833 0.375347 6.9 0 8 0C9.1 0 10.0417 0.375347 10.825 1.12604C11.6083 1.87674 12 2.77917 12 3.83333C12 4.8875 11.6083 5.78993 10.825 6.54062C10.0417 7.29132 9.1 7.66667 8 7.66667ZM2 15.3333C1.45 15.3333 0.979333 15.1458 0.588 14.7708C0.196 14.3951 0 13.9437 0 13.4167V12.65C0 12.1069 0.146 11.6077 0.438 11.1521C0.729334 10.6972 1.11667 10.35 1.6 10.1104C2.63333 9.61528 3.68333 9.24376 4.75 8.99588C5.81667 8.74862 6.9 8.625 8 8.625C9.1 8.625 10.1833 8.74862 11.25 8.99588C12.3167 9.24376 13.3667 9.61528 14.4 10.1104C14.8833 10.35 15.2707 10.6972 15.562 11.1521C15.854 11.6077 16 12.1069 16 12.65V13.4167C16 13.9437 15.8043 14.3951 15.413 14.7708C15.021 15.1458 14.55 15.3333 14 15.3333H2Z" fill="#00A991"/>
</svg>
